<svg viewBox="0 0 425 170" xmlns="http://www.w3.org/2000/svg">
    <path fill="#ef4130" d="M272.27 0h5.48c6.05.5 12.12 2.44 16.8 6.4 6.56 5.5 9.48 14.29 9.53 22.65.3 12.82-5.73 24.49-11.54 35.53-10.5 19.47-21.54 38.66-33.29 57.4 9.46-19.06 17.91-38.78 23.04-59.49 2.45-10.74 4.38-22.03 1.98-32.95-2.21-8.41-6.91-16.86-14.84-21.03-5.73-3.02-12.51-2.87-18.63-1.26 6.11-4.69 14-6.27 21.47-7.25z M237.39 30.97c.54-5.75 2.37-11.72 6.44-15.97-1.14 6.99-.33 15.08 5.09 20.19 6.73 5.98 18.25 5.49 24.21-1.4-1.93 7.16-6.42 14.05-13.29 17.29-4.93 2.43-11.3 2.29-15.66-1.26-5.54-4.43-7.42-12.04-6.79-18.85z"/>
    <path fill="#fff" d="M362.26 42.6c12.23-1.39 24.44-3.03 36.69-4.25 7.4-.64 15.31 1.66 20.47 7.16 3.48 3.66 5.21 8.64 5.58 13.61v4.61c-.89 11.6-8.92 21.74-19.41 26.37 3.83 9.92 7.69 19.83 11.51 29.76-8.29.91-16.53 2.26-24.84 2.88-4.06-15.42-8.98-30.62-13.15-46.02 5.67-.96 11.77-.85 16.93-3.71 4.07-2.17 6.58-7.15 5.4-11.68-.66-2.38-3.09-3.71-5.39-4.01-4.92-.67-9.8.64-14.67 1.16-4.76 22.6-9.4 45.22-14.39 67.78-7.05.97-14.15 1.6-21.2 2.62-.47-.64-.94-1.29-1.41-1.93 6.13-28.08 11.78-56.26 17.88-84.35zm-103.83 97.62c20.41-32.98 40.74-66.01 61.21-98.95 7.83 28.86 16.3 57.57 23.93 86.48.34.31 1.03.93 1.38 1.24-8.71 1.05-17.39 2.48-26.13 3.21-2.23-12.7-4.59-25.38-6.95-38.05-8.29 13.68-16.28 27.55-24.59 41.21-9.56 1.87-19.24 3.2-28.85 4.86zm-49.79-78.53c7.66-.95 15.33-1.84 22.98-2.85-4.36 21.95-9.26 43.8-13.82 65.71 11.64-1.82 23.28-3.69 34.92-5.5-2.17 7.4-4.27 14.82-6.47 22.21-18.61 2.05-37.22 4.16-55.83 6.25 6.07-28.6 12.12-57.22 18.22-85.82zm-57.06 8.81c7.53-4.97 17.1-6.69 25.92-4.87 6.69 1.75 12.51 6.35 16.55 11.87-5.14 4.52-9.93 9.42-14.97 14.05-2.78-3.44-5.8-7.15-10.13-8.62-3.71-1.32-7.63 2.28-7.44 5.99.4 2.62 2.5 4.45 4.47 6.01 5.49 4.23 11.06 8.37 16.53 12.64 6.23 5 7.68 14.04 5.18 21.35-4.82 16.31-22.07 26.95-38.7 26.08-9.21-.69-18.67-6.07-21.64-15.23 6.2-3.5 12.38-7.03 18.61-10.48 1.26 2.51 2.69 5.09 5.1 6.66 4.89 3.53 13.03.2 13.81-5.85.51-3.73-1.51-7.37-4.34-9.67-6.16-4.79-13.17-8.65-18.24-14.69-3.67-4.34-5.15-10.36-3.85-15.9 1.77-7.76 6.44-14.95 13.14-19.34zm-68.7 6.3l53.72-6.6c-1.49 6.93-2.98 13.86-4.48 20.78-10.17 1.21-20.35 2.37-30.53 3.58-.93 4.52-1.84 9.05-2.76 13.57l19.69-2.43c-1.44 6.73-2.81 13.46-4.31 20.18-6.61.8-13.19 1.77-19.79 2.6-.81 3.78-1.55 7.56-2.32 11.35 10.81-1.29 21.61-2.55 32.42-3.83-1.38 6.82-2.98 13.59-4.22 20.44-18.56 2.55-37.21 4.52-55.81 6.85 6.12-28.83 12.25-57.66 18.39-86.49zM4.21 86.08c24.2-2.95 48.41-5.81 72.61-8.71-1.98 6.87-3.95 13.75-5.92 20.62-7.21.88-14.42 1.83-21.65 2.62-4.75 21.92-9.46 43.85-13.96 65.82-6.6 1.08-13.26 1.67-19.88 2.54-.43.26-1.28.77-1.7 1.03h-1.32c-.28-2.91.74-5.69 1.3-8.49 4.02-19.42 8.09-38.83 12.12-58.24-8.6 1.22-17.2 2.39-25.8 3.63 1.3-6.96 2.83-13.88 4.2-20.82z"/>
</svg>
